<svg width="76" height="22" viewBox="0 0 84 30" fill="none" xmlns="http://www.w3.org/2000/svg">
<g filter="url(#filter0_d_832_58)">
<path fill-rule="evenodd" clip-rule="evenodd" d="M4 0H37.5019L46.3182 11L37.5019 22H4V0ZM19.1088 9.8781C19.0565 9.83654 19.0048 9.79507 18.9535 9.75385C18.8238 9.6497 18.6962 9.54717 18.5649 9.44886C18.2066 9.17794 17.8174 8.96215 17.3711 8.86598C16.8783 8.75925 16.3808 8.72055 15.8893 8.86832C15.1882 9.07825 14.7002 9.53565 14.3777 10.1725C14.1099 10.7026 14.0385 11.2644 14.1087 11.8484C14.1647 12.3058 14.3134 12.7304 14.586 13.1068C15.0049 13.685 15.5762 14.0193 16.2904 14.1072C16.9331 14.187 17.5556 14.1072 18.1447 13.8281C18.3459 13.7325 18.3459 13.7308 18.3459 13.5107V13.5068C18.3459 13.4531 18.346 13.3997 18.3461 13.3462C18.3464 13.2395 18.3466 13.133 18.3459 13.0259C18.3457 13.0044 18.346 12.9861 18.3463 12.9704C18.347 12.9258 18.3473 12.903 18.3359 12.8914C18.3238 12.8792 18.2986 12.8795 18.247 12.8801C18.2341 12.8803 18.2195 12.8805 18.203 12.8805H16.3344C16.3177 12.8805 16.3029 12.8806 16.2898 12.8808C16.2375 12.8814 16.212 12.8817 16.1998 12.8694C16.1882 12.8576 16.1887 12.8345 16.1897 12.7892C16.19 12.7741 16.1904 12.7566 16.1904 12.7362C16.1896 12.2436 16.1899 11.7511 16.1901 11.2585L16.1901 11.2539C16.1903 11.0092 16.1904 10.7644 16.1904 10.5196C16.1904 10.5107 16.1906 10.5016 16.1909 10.4925C16.1914 10.4741 16.192 10.4556 16.1904 10.4375C16.1868 10.3941 16.2023 10.3707 16.2499 10.3754C16.2682 10.3769 16.287 10.3764 16.3057 10.3759L16.3219 10.3755L16.3332 10.3754H21.0571C21.0881 10.3754 21.1143 10.3812 21.1095 10.4199C21.1074 10.4432 21.1222 10.4589 21.1374 10.4749C21.1558 10.4943 21.1747 10.5142 21.1643 10.5489C21.1552 10.5789 21.1575 10.6115 21.1598 10.6443C21.1609 10.6591 21.1619 10.6739 21.1619 10.6885L21.1618 11.5304C21.1616 12.6528 21.1614 13.7756 21.1643 14.8977C21.1643 14.9892 21.1357 15.0466 21.0655 15.1041C20.1859 15.8254 19.1969 16.3297 18.0781 16.5795C17.4163 16.7273 16.7462 16.7683 16.069 16.7144C15.2692 16.651 14.5086 16.4481 13.8064 16.0635C12.5174 15.3574 11.7057 14.2855 11.332 12.8863C11.1677 12.2683 11.1177 11.6385 11.1701 11.0028C11.3665 8.64549 13.0399 6.80654 15.2823 6.2952C15.9226 6.1486 16.5689 6.12749 17.2211 6.17088C17.721 6.20489 18.2126 6.2823 18.6934 6.42303C19.4135 6.63531 20.049 7.00122 20.6275 7.47034C20.6953 7.52546 20.762 7.58059 20.8274 7.63688C20.9108 7.70725 20.9131 7.74712 20.8405 7.83391C20.4763 8.26785 20.112 8.70081 19.7466 9.13357L19.7458 9.13444C19.564 9.35105 19.3822 9.56766 19.1992 9.78311C19.1945 9.7891 19.1899 9.7953 19.1851 9.80159C19.165 9.82856 19.1435 9.85718 19.1088 9.8781ZM32.1735 7.62632C31.0725 6.63413 29.7609 6.16149 28.4053 6.15093C27.7792 6.15211 27.3115 6.20254 26.8151 6.33037C25.375 6.70215 24.2479 7.49965 23.4992 8.77331C22.7304 10.0798 22.5744 11.4813 23.0041 12.9227C23.4849 14.5341 26.0951 16.3602 26.0951 16.3602C26.0951 16.3602 28.5743 16.9278 29.8466 16.5971C31.3248 16.2136 32.4579 15.3656 33.2006 14.0427C33.8266 12.9274 33.9945 11.7311 33.7612 10.4821C33.5517 9.35971 33.028 8.39802 32.1735 7.62632ZM28.0839 8.83313C27.34 8.84955 26.5735 9.26941 26.0939 10.1455C25.7678 10.7401 25.6916 11.3816 25.8154 12.0443C25.913 12.5673 26.1427 13.0306 26.5235 13.4106C27.1175 14.004 27.8447 14.2374 28.6778 14.1424C29.5395 14.045 30.1799 13.6088 30.5905 12.8593C30.9392 12.2213 31.0118 11.5388 30.8488 10.8363C30.5798 9.67051 29.5931 8.82961 28.0839 8.83313Z" fill="white" fill-opacity="0.3"/>
<path fill-rule="evenodd" clip-rule="evenodd" d="M46.3182 0H80V22H46.3182V0ZM57.6266 11.2735V6.29027C57.6266 6.27294 57.6264 6.25775 57.6262 6.24444C57.6255 6.19689 57.6251 6.1733 57.637 6.16178C57.6487 6.15043 57.6722 6.15078 57.7189 6.15147C57.727 6.15159 57.7358 6.15172 57.7454 6.1518C57.7511 6.15185 57.7572 6.15188 57.7635 6.15188C58.3317 6.1511 58.9004 6.15136 59.4689 6.15162C59.7531 6.15175 60.0373 6.15188 60.3213 6.15188C60.3281 6.15188 60.3349 6.15214 60.3416 6.15241C60.355 6.15293 60.3681 6.15344 60.3808 6.15188C60.4451 6.14484 60.4653 6.17534 60.4593 6.23398C60.4578 6.24961 60.4583 6.26525 60.4588 6.28089L60.4592 6.2929L60.4593 6.30434V16.2591C60.4593 16.2694 60.4594 16.279 60.4596 16.288C60.4597 16.2976 60.4599 16.3065 60.4601 16.3147C60.4611 16.3616 60.4616 16.3857 60.4496 16.3978C60.4371 16.4105 60.4107 16.4102 60.3567 16.4096C60.3428 16.4094 60.3271 16.4092 60.3094 16.4092C59.7467 16.41 59.184 16.4097 58.6217 16.4095H58.6194C58.338 16.4093 58.0566 16.4092 57.7754 16.4092C57.7675 16.4092 57.7596 16.4089 57.7516 16.4087C57.7358 16.4081 57.7199 16.4076 57.704 16.4092C57.6374 16.4186 57.6219 16.3846 57.6266 16.3271C57.6282 16.3068 57.6277 16.286 57.6272 16.2651C57.6269 16.2545 57.6266 16.2439 57.6266 16.2333V11.2735ZM71.7353 6.15222H67.5101H67.5086C66.1011 6.15222 64.6936 6.15222 63.2872 6.15105C63.2765 6.15105 63.2658 6.15118 63.2553 6.15131C63.2342 6.15157 63.2134 6.15183 63.192 6.15105C63.1444 6.1487 63.1277 6.17099 63.1313 6.21438C63.1321 6.22763 63.1318 6.24036 63.1316 6.25326C63.1314 6.25977 63.1313 6.26633 63.1313 6.27302V8.65381C63.1313 8.72193 63.129 8.75306 63.1436 8.76713C63.1585 8.78139 63.1909 8.77812 63.261 8.77812H65.9152C66.0015 8.77812 66.0444 8.77812 66.0656 8.79911C66.0866 8.81979 66.0866 8.86083 66.0866 8.94232V16.2829C66.0866 16.3505 66.0824 16.3819 66.0964 16.3963C66.1103 16.4107 66.1422 16.4084 66.2139 16.4084H66.2496H68.761C68.8406 16.4084 68.8802 16.4084 68.8998 16.389C68.9193 16.3698 68.9193 16.3317 68.9193 16.2559V8.91534C68.9193 8.84117 68.9146 8.80714 68.9297 8.79165C68.9449 8.77604 68.9803 8.7793 69.0609 8.7793H71.7627C71.8793 8.7793 71.8793 8.7793 71.8805 8.66553V8.63035V6.29648C71.8805 6.21469 71.885 6.17866 71.8689 6.16306C71.8529 6.14756 71.8166 6.15222 71.7353 6.15222Z" fill="white" fill-opacity="0.3"/>
</g>
<defs>
<filter id="filter0_d_832_58" x="0" y="0" width="84" height="30" filterUnits="userSpaceOnUse" color-interpolation-filters="sRGB">
<feFlood flood-opacity="0" result="BackgroundImageFix"/>
<feColorMatrix in="SourceAlpha" type="matrix" values="0 0 0 0 0 0 0 0 0 0 0 0 0 0 0 0 0 0 127 0" result="hardAlpha"/>
<feOffset dy="4"/>
<feGaussianBlur stdDeviation="2"/>
<feComposite in2="hardAlpha" operator="out"/>
<feColorMatrix type="matrix" values="0 0 0 0 0 0 0 0 0 0 0 0 0 0 0 0 0 0 0.25 0"/>
<feBlend mode="normal" in2="BackgroundImageFix" result="effect1_dropShadow_832_58"/>
<feBlend mode="normal" in="SourceGraphic" in2="effect1_dropShadow_832_58" result="shape"/>
</filter>
</defs>
</svg>
